inDegrees=no
num_controls=7
num_derivatives=13
num_iterations=201
num_multipliers=7
num_parameters=0
num_slacks=7
num_states=26
objective=0.545105
objective_accelerations=0.042641
objective_balance=0.003991
objective_effort=0.041511
objective_height=0.447516
objective_ligament=0.009446
solver_duration=2753.386644
status=Solve_Succeeded
success=true
DataType=double
version=3
OpenSimVersion=4.5
endheader
time	/jointset/ground_pelvis/pelvis_tilt/value	/jointset/ground_pelvis/pelvis_tx/value	/jointset/ground_pelvis/pelvis_ty/value	/jointset/hip_r/hip_flexion_r/value	/jointset/hip_r/hip_adduction_r/value	/jointset/hip_r/hip_rotation_r/value	/jointset/back/lumbar_extension/value	/jointset/patellofemoral_r/patellar_flexion_r/value	/jointset/knee_r/knee_flexion_r/value	/jointset/knee_r/knee_adduction_r/value	/jointset/knee_r/knee_rotation_r/value	/jointset/ankle_r/ankle_angle_r/value	/jointset/subtalar_r/subtalar_angle_r/value	/jointset/ground_pelvis/pelvis_tilt/speed	/jointset/ground_pelvis/pelvis_tx/speed	/jointset/ground_pelvis/pelvis_ty/speed	/jointset/hip_r/hip_flexion_r/speed	/jointset/hip_r/hip_adduction_r/speed	/jointset/hip_r/hip_rotation_r/speed	/jointset/back/lumbar_extension/speed	/jointset/patellofemoral_r/patellar_flexion_r/speed	/jointset/knee_r/knee_flexion_r/speed	/jointset/knee_r/knee_adduction_r/speed	/jointset/knee_r/knee_rotation_r/speed	/jointset/ankle_r/ankle_angle_r/speed	/jointset/subtalar_r/subtalar_angle_r/speed	/forceset/tau_hip_flexion_r	/forceset/tau_hip_adduction_r	/forceset/tau_hip_rotation_r	/forceset/tau_knee_flexion_r	/forceset/tau_ankle_angle_r	/forceset/tau_subtalar_angle_r	/forceset/tau_lumbar_extension	lambda_cid13_p0	lambda_cid14_p0	lambda_cid14_p1	lambda_cid14_p2	lambda_cid14_p3	lambda_cid14_p4	lambda_cid14_p5	/jointset/ground_pelvis/pelvis_tilt/accel	/jointset/ground_pelvis/pelvis_tx/accel	/jointset/ground_pelvis/pelvis_ty/accel	/jointset/hip_r/hip_flexion_r/accel	/jointset/hip_r/hip_adduction_r/accel	/jointset/hip_r/hip_rotation_r/accel	/jointset/back/lumbar_extension/accel	/jointset/patellofemoral_r/patellar_flexion_r/accel	/jointset/knee_r/knee_flexion_r/accel	/jointset/knee_r/knee_adduction_r/accel	/jointset/knee_r/knee_rotation_r/accel	/jointset/ankle_r/ankle_angle_r/accel	/jointset/subtalar_r/subtalar_angle_r/accel	gamma_cid13_p0	gamma_cid14_p0	gamma_cid14_p1	gamma_cid14_p2	gamma_cid14_p3	gamma_cid14_p4	gamma_cid14_p5
1	-0.4205987452564972	-0.05552331071086633	0.6966002590456342	1.50605977989724	-0.2304262978259749	-0.06199720164746112	-0.4363304637551161	1.164948494858077	1.164948494858059	-0.02874052958693948	0.1745315584730636	0.2667946742512999	0.05589494174125576	-0.001569787985046527	0.002666822908684215	0.01364874166735729	-0.03661000774403705	0.001325000671394505	-0.009723457861219755	-9.992023317998056e-06	-0.04674816733497567	-0.04674816733497576	0.001276618849909463	9.96047715294482e-06	-0.009941941115943591	-0.0009480670219878253	-0.3538265922180253	-0.003432870054450215	0.01229918995616216	-0.3902826585972033	0.06852079503848826	0.008989030294155081	0.3397934557555278	-2.823314159297786	-26.41978523313774	0.9570630652378097	-1.610481568590016	12.30773993221923	-787.7871814537878	63.3061615707202	1.805058908943255	0.2515899156110274	1.491761093714596	-5.453623423584142	0.06331486381448158	-0.7332242427991041	-0.01723124161783313	-4.327260610634944	-4.327260610634938	0.3629863372608729	0.009481755612672286	-0.8270654712583376	-0.1434285844482861	3.640317093779324e-10	7.882057921999775e-10	7.77934401394763e-09	6.228138968173046e-09	-4.70174571582212e-10	-2.128837284954674e-09	5.971345149003937e-09
1.01	-0.4205249810863882	-0.05548412264036663	0.6968111548339494	1.505422090617766	-0.2304097763411556	-0.06213050832698061	-0.4363306454185951	1.164264834317937	1.164264834317925	-0.02870930385376149	0.1745316947719499	0.2666537989360384	0.05587839164285655	0.01631929760064301	0.00516966311292291	0.02852571593807021	-0.09091647668818821	0.001980144899476623	-0.0169346713445946	-3.305956432954391e-05	-0.08998509062287555	-0.08998509062287585	0.004971922467349008	1.598484905412127e-05	-0.01824271742897377	-0.002363614909775679	-0.353526394572454	-0.003442652375365499	0.01230743098042455	-0.3900841324327883	0.06856467956222977	0.008985896265501454	0.3395539285275349	-2.849635408211907	-26.38979795545142	0.9639255389316921	-1.614971504307523	12.30163055673441	-787.5074462064263	63.30436862283878	1.780335018640809	0.2494615229067648	1.484959649286732	-5.417452701338736	0.06674388464104633	-0.7145894302748437	0.004147655913498728	-4.32208079245559	-4.322080792455624	0.373313689873719	-0.004031884001433217	-0.8330233800651664	-0.1408635509609739	5.73371527324357e-10	1.616556505445346e-09	1.484523412489491e-08	1.126504173894648e-08	-1.678665929143834e-09	-4.653603637710163e-09	1.097162243846125e-08
1.02	-0.4202724257333701	-0.05541994007780923	0.6971706791760792	1.504241677834549	-0.2303866774775887	-0.06233583104716672	-0.4363312593242298	1.163148770024001	1.163148770023994	-0.02864102282123183	0.1745318523821575	0.2664296279238986	0.05584763693357604	0.03418844859669219	0.007665721320223296	0.04337445243027122	-0.1451547084926649	0.002640476420998081	-0.02412666599469612	-9.64404550887489e-05	-0.1332289180942988	-0.1332289180942993	0.008687678720317832	1.422274174409462e-05	-0.02660108049159628	-0.003788989198240973	-0.3532261969268802	-0.003452434696281226	0.01231567200468177	-0.3898856062683734	0.06860856408597085	0.008982762236847228	0.3393144012995444	-2.89287884557724	-26.36842753889642	0.9715524395783082	-1.622179910370193	12.30659248256828	-787.3643913395198	63.31559869119842	1.801071991015184	0.250233516223366	1.486113538012215	-5.439975995649255	0.06435232250235219	-0.7293804761444348	-0.0252939115673362	-4.32864144733962	-4.328641447339615	0.3670768643667284	0.00792445977042437	-0.8385828211768044	-0.1453938645837697	7.421577635863835e-10	1.974536917786117e-09	2.150641084422661e-08	1.600537258904829e-08	-1.988965912922441e-09	-7.20428960375434e-09	1.526192257725539e-08
1.03	-0.4198412522301089	-0.05533074742382514	0.6976785207834897	1.502519176837231	-0.2303569738518156	-0.06261291877084896	-0.4363323129985824	1.16160030745424	1.161600307454238	-0.02853539613012837	0.1745319716839343	0.2661216767200977	0.05580257288959074	0.05204527391557572	0.01018001735018286	0.05818628147820595	-0.1993386479171531	0.003299133493055312	-0.03128144360628005	-8.368310829760383e-05	-0.1764574408310682	-0.176457440831068	0.012449202379092	9.129603501842574e-06	-0.03498952165190621	-0.005225446015674823	-0.3530272217750871	-0.00345861369500685	0.01233305113596215	-0.3894280490345678	0.06863260613907096	0.008999885339984331	0.3392632414785545	-2.953398587710915	-26.34331131696375	0.9924615918433135	-1.635879100387542	12.21443600092768	-787.1449252052892	63.32613516893939	1.7778416120373	0.2531083675748353	1.477577485631863	-5.406576117975564	0.06645969434000046	-0.7071123262541539	0.01941046548659107	-4.319034615942746	-4.319034615942648	0.3824256850526358	-0.004797812733373806	-0.8390297395794916	-0.1430086175221288	9.105301877904056e-10	2.327717633178879e-09	2.816345783507243e-08	2.074267719506161e-08	-2.290100678601217e-09	-9.755240055648404e-09	1.954497805124685e-08
